HIERARCHY
ROOT Hips
{
 OFFSET 0.000000 0.000000 0.000000
 CHANNELS 6 Xposition Yposition Zposition Yrotation Xrotation Zrotation
 JOINT Chest
 {
  OFFSET 0.000000 11.395451 -0.039534
  CHANNELS 3 Yrotation Xrotation Zrotation
  JOINT Chest2
  {
   OFFSET 0.000000 9.398669 0.071813
   CHANNELS 3 Yrotation Xrotation Zrotation
   JOINT Chest3
   {
    OFFSET 0.000000 8.489801 0.000000
    CHANNELS 3 Yrotation Xrotation Zrotation
    JOINT Chest4
    {
     OFFSET 0.000000 8.489801 0.000000
     CHANNELS 3 Yrotation Xrotation Zrotation
     JOINT Neck
     {
      OFFSET 0.000000 12.404889 0.000000
      CHANNELS 3 Yrotation Xrotation Zrotation
      JOINT Head
      {
       OFFSET 0.000000 8.903270 0.092239
       CHANNELS 3 Yrotation Xrotation Zrotation
       End Site
       {
        OFFSET 0.000000 17.592497 0.007158
       }
      }
     }
     JOINT RightCollar
     {
      OFFSET -3.196775 6.966722 0.000000
      CHANNELS 3 Yrotation Xrotation Zrotation
      JOINT RightShoulder
      {
       OFFSET -15.955896 0.000000 0.000000
       CHANNELS 3 Yrotation Xrotation Zrotation
       JOINT RightElbow
       {
        OFFSET -24.792472 0.000000 0.000000
        CHANNELS 3 Yrotation Xrotation Zrotation
        JOINT RightWrist
        {
         OFFSET -20.900115 0.000000 0.025002
         CHANNELS 3 Yrotation Xrotation Zrotation
         End Site
         {
          OFFSET -16.056692 0.000000 0.000000
         }
        }
       }
      }
     }
     JOINT LeftCollar
     {
      OFFSET 3.196775 6.966722 0.000000
      CHANNELS 3 Yrotation Xrotation Zrotation
      JOINT LeftShoulder
      {
       OFFSET 15.955896 0.000000 0.000000
       CHANNELS 3 Yrotation Xrotation Zrotation
       JOINT LeftElbow
       {
        OFFSET 24.792472 0.000000 0.000000
        CHANNELS 3 Yrotation Xrotation Zrotation
        JOINT LeftWrist
        {
         OFFSET 20.900115 0.000000 0.025002
         CHANNELS 3 Yrotation Xrotation Zrotation
         End Site
         {
          OFFSET 16.056692 0.000000 0.000000
         }
        }
       }
      }
     }
    }
   }
  }
 }
 JOINT RightHip
 {
  OFFSET -9.568995 0.193718 0.019767
  CHANNELS 3 Yrotation Xrotation Zrotation
  JOINT RightKnee
  {
   OFFSET 0.000000 -56.649296 0.015402
   CHANNELS 3 Yrotation Xrotation Zrotation
   JOINT RightAnkle
   {
    OFFSET 0.000000 -41.365147 0.021264
    CHANNELS 3 Yrotation Xrotation Zrotation
    JOINT RightToe
    {
     OFFSET 0.000000 -7.465940 17.672538
     CHANNELS 3 Yrotation Xrotation Zrotation
     End Site
     {
      OFFSET 0.000000 -1.736315 7.837145
     }
    }
   }
  }
 }
 JOINT LeftHip
 {
  OFFSET 9.568995 0.193718 0.019767
  CHANNELS 3 Yrotation Xrotation Zrotation
  JOINT LeftKnee
  {
   OFFSET 0.000000 -56.649296 0.015402
   CHANNELS 3 Yrotation Xrotation Zrotation
   JOINT LeftAnkle
   {
    OFFSET 0.000000 -41.365147 0.021264
    CHANNELS 3 Yrotation Xrotation Zrotation
    JOINT LeftToe
    {
     OFFSET 0.000000 -7.465940 17.672538
     CHANNELS 3 Yrotation Xrotation Zrotation
     End Site
     {
      OFFSET 0.000000 -1.736315 7.837145
     }
    }
   }
  }
 }
}
MOTION
Frames: 10
Frame Time: 0.016667
-31.914074 106.320771 161.825580 -122.677857 -10.751655 -0.754979 2.188679 5.195387 0.589702 0.965108 2.311819 0.237284 0.965108 2.311819 0.237284 0.722835 1.734244 0.174287 0.679211 15.211233 -0.448729 1.439492 -7.927379 -1.094946 1.254472 6.549434 8.469005 7.524230 -10.736596 76.747757 0.892497 -0.323250 -1.707572 -3.146784 0.025902 3.079228 1.083548 8.762497 -8.333883 -1.354104 -13.378350 -76.402699 -3.801833 -6.977846 0.521744 3.327686 1.334907 -5.327573 1.282723 13.935817 -0.095291 -1.240802 4.460868 -0.283804 -5.926994 -8.717697 0.546172 0.000000 0.000000 0.000000 3.367655 15.863919 1.664264 0.779163 5.379731 -0.303623 10.530597 -10.329605 -1.346048 0.000000 0.000000 0.000000
-31.881620 106.318557 161.841348 -122.686387 -10.609786 -0.759647 2.179279 5.168592 0.556304 0.961351 2.299742 0.222690 0.961351 2.299743 0.222690 0.720078 1.725163 0.163376 0.685847 15.219507 -0.446749 1.451039 -7.911944 -1.093604 1.262888 6.466977 8.477745 7.525693 -10.695431 76.713692 0.954064 -0.309128 -1.654225 -3.138922 0.023176 3.111853 1.069916 8.663367 -8.246817 -1.299318 -13.385175 -76.434413 -3.790180 -6.989825 0.488802 3.366393 1.340314 -5.323637 1.293078 13.753711 -0.039343 -1.313358 4.447753 -0.391155 -5.874302 -8.629917 0.591566 0.000000 0.000000 0.000000 3.325931 15.657486 1.653560 0.861221 5.469266 -0.297606 10.507445 -10.384772 -1.376182 0.000000 0.000000 0.000000
-31.849165 106.316343 161.857117 -122.694925 -10.467917 -0.764334 2.169815 5.141788 0.522930 0.957562 2.287662 0.208107 0.957562 2.287663 0.208107 0.717297 1.716078 0.152473 0.692492 15.227774 -0.444782 1.462605 -7.896518 -1.092290 1.271216 6.384515 8.486509 7.527168 -10.654278 76.679610 1.015659 -0.295114 -1.600866 -3.131060 0.020433 3.144475 1.056167 8.564337 -8.159652 -1.244523 -13.391976 -76.466123 -3.778525 -7.001806 0.455859 3.405104 1.345696 -5.319696 1.303374 13.571601 0.016556 -1.385807 4.434449 -0.498531 -5.821522 -8.542171 0.636988 0.000000 -0.000000 0.000000 3.284304 15.451044 1.643146 0.943292 5.558801 -0.291434 10.484321 -10.439936 -1.406326 0.000000 0.000000 0.000000
-31.818892 106.315012 161.872862 -122.694772 -10.330407 -0.771785 2.156445 5.115654 0.492566 0.952001 2.275892 0.194898 0.952001 2.275892 0.194898 0.713181 1.707227 0.142608 0.697964 15.234581 -0.443967 1.472433 -7.883804 -1.092713 1.279796 6.307091 8.491557 7.532016 -10.617660 76.650970 1.063673 -0.285404 -1.556588 -3.124351 0.018149 3.175649 1.042367 8.471283 -8.077322 -1.196093 -13.397379 -76.497173 -3.762554 -7.004379 0.428903 3.439743 1.350186 -5.314261 1.293290 13.399676 0.062421 -1.440237 4.427288 -0.591318 -5.772382 -8.470504 0.676375 0.000000 -0.000000 0.000000 3.241915 15.253168 1.635008 1.014323 5.645387 -0.286443 10.463511 -10.491144 -1.431842 0.000000 0.000000 0.000000
-31.791242 106.314957 161.888900 -122.680230 -10.195134 -0.784429 2.136272 5.087736 0.466843 0.943367 2.263344 0.183832 0.943367 2.263344 0.183832 0.706752 1.697797 0.134361 0.701651 15.240993 -0.444718 1.479515 -7.871826 -1.095400 1.288567 6.237213 8.491187 7.543419 -10.587535 76.631531 1.089180 -0.283412 -1.527698 -3.118796 0.015471 3.204869 1.028282 8.387537 -8.001913 -1.157302 -13.399111 -76.528144 -3.739393 -6.990759 0.412078 3.466610 1.351740 -5.305589 1.248645 13.239083 0.093184 -1.464883 4.430401 -0.661991 -5.728635 -8.424189 0.706409 -0.000000 0.000000 0.000000 3.197437 15.063044 1.630827 1.068087 5.729528 -0.283873 10.446316 -10.537970 -1.449800 0.000000 -0.000000 0.000000
-31.765773 106.315785 161.904915 -122.657034 -10.064212 -0.799757 2.112218 5.060500 0.444157 0.932972 2.251113 0.174149 0.932972 2.251113 0.174149 0.698997 1.688605 0.127157 0.704156 15.245946 -0.446616 1.484839 -7.862556 -1.099810 1.297626 6.172368 8.487095 7.558195 -10.561944 76.617543 1.101075 -0.285621 -1.507900 -3.114396 0.013274 3.232643 1.014202 8.309746 -7.931355 -1.124886 -13.399467 -76.558460 -3.711926 -6.967729 0.401238 3.489411 1.352416 -5.295449 1.183708 13.088702 0.114218 -1.471614 4.439799 -0.718059 -5.688592 -8.393936 0.730383 0.000000 -0.000000 -0.000000 3.152136 14.881497 1.628806 1.110809 5.810717 -0.282567 10.431412 -10.580842 -1.463120 0.000000 0.000000 0.000000
-31.743348 106.317204 161.919933 -122.633620 -9.948348 -0.813112 2.089177 5.042014 0.422623 0.923001 2.242779 0.164925 0.923001 2.242779 0.164925 0.691557 1.682338 0.120290 0.706113 15.244791 -0.449538 1.489613 -7.864618 -1.106029 1.307551 6.110063 8.480625 7.570149 -10.539527 76.603204 1.112481 -0.285802 -1.487393 -3.112300 0.014637 3.259034 1.001005 8.233740 -7.864358 -1.095412 -13.403934 -76.585728 -3.684487 -6.946226 0.389935 3.515170 1.357518 -5.287631 1.120844 12.955325 0.131168 -1.477997 4.449667 -0.767452 -5.650834 -8.367933 0.752139 0.000000 0.000000 0.000000 3.109036 14.719565 1.625663 1.150116 5.884493 -0.280289 10.417133 -10.617095 -1.475938 0.000000 0.000000 0.000000
-31.724741 106.319400 161.933483 -122.611521 -9.854495 -0.822818 2.068285 5.037323 0.401548 0.913960 2.240581 0.155817 0.913961 2.240581 0.155817 0.684812 1.680674 0.113496 0.707287 15.234685 -0.453602 1.493489 -7.883298 -1.114236 1.318298 6.048273 8.471973 7.575259 -10.520675 76.586190 1.127012 -0.280746 -1.461760 -3.114122 0.023216 3.284082 0.989064 8.156633 -7.800550 -1.067458 -13.414741 -76.608962 -3.656843 -6.929332 0.375738 3.549509 1.372439 -5.285193 1.066661 12.844132 0.145131 -1.491001 4.460114 -0.812096 -5.614339 -8.343550 0.773556 0.000000 0.000000 0.000000 3.067892 14.584288 1.619948 1.189261 5.949652 -0.275996 10.402206 -10.645116 -1.489812 -0.000000 0.000000 -0.000000
-31.709179 106.322186 161.946038 -122.589175 -9.775703 -0.830578 2.048419 5.041382 0.381599 0.905352 2.242280 0.147157 0.905352 2.242280 0.147157 0.678387 1.681933 0.107031 0.707897 15.218470 -0.458680 1.496786 -7.913310 -1.124228 1.329919 5.989023 8.460922 7.577529 -10.504988 76.568829 1.141069 -0.273656 -1.435423 -3.118227 0.035367 3.307739 0.978038 8.081282 -7.740319 -1.042438 -13.429656 -76.629152 -3.629230 -6.913958 0.361079 3.586800 1.391794 -5.285058 1.014541 12.749926 0.154872 -1.503663 4.471049 -0.850067 -5.580140 -8.323410 0.792753 0.000000 -0.000000 0.000000 3.028942 14.468621 1.613024 1.224992 6.007395 -0.270756 10.387902 -10.666518 -1.503184 0.000000 0.000000 0.000000
-31.695197 106.324715 161.958034 -122.570358 -9.701840 -0.836842 2.031083 5.047113 0.362922 0.897851 2.244732 0.139027 0.897851 2.244732 0.139027 0.672791 1.683758 0.100958 0.709253 15.200036 -0.464289 1.501718 -7.947424 -1.135533 1.343134 5.935896 8.448181 7.582805 -10.489911 76.552294 1.156963 -0.267945 -1.411836 -3.120895 0.043205 3.329950 0.967732 8.012132 -7.683516 -1.021170 -13.447464 -76.646867 -3.606691 -6.901786 0.346796 3.617185 1.404715 -5.281811 0.966976 12.663913 0.162393 -1.512614 4.476336 -0.883513 -5.549891 -8.303586 0.807940 0.000000 0.000000 0.000000 2.995946 14.362461 1.605839 1.255176 6.056860 -0.265490 10.376373 -10.683470 -1.515519 0.000000 -0.000000 -0.000000
